<svg id="visual" viewBox="0 0 900 600" width="900" height="600" xmlns="http://www.w3.org/2000/svg" xmlns:xlink="http://www.w3.org/1999/xlink" version="1.1"><path d="M0 103L82 85L164 85L245 97L327 91L409 55L491 97L573 55L655 55L736 67L818 103L900 91L900 0L818 0L736 0L655 0L573 0L491 0L409 0L327 0L245 0L164 0L82 0L0 0Z" fill="#ffffff"></path><path d="M0 199L82 193L164 139L245 241L327 145L409 175L491 193L573 157L655 139L736 181L818 229L900 193L900 89L818 101L736 65L655 53L573 53L491 95L409 53L327 89L245 95L164 83L82 83L0 101Z" fill="#e3c8ff"></path><path d="M0 313L82 307L164 409L245 331L327 253L409 451L491 409L573 277L655 271L736 295L818 421L900 385L900 191L818 227L736 179L655 137L573 155L491 191L409 173L327 143L245 239L164 137L82 191L0 197Z" fill="#c391ff"></path><path d="M0 493L82 529L164 517L245 535L327 481L409 547L491 481L573 523L655 535L736 499L818 559L900 511L900 383L818 419L736 293L655 269L573 275L491 407L409 449L327 251L245 329L164 407L82 305L0 311Z" fill="#9c58ff"></path><path d="M0 601L82 601L164 601L245 601L327 601L409 601L491 601L573 601L655 601L736 601L818 601L900 601L900 509L818 557L736 497L655 533L573 521L491 479L409 545L327 479L245 533L164 515L82 527L0 491Z" fill="#6600ff"></path></svg>